<?xml version="1.0" encoding="utf-8"?>
<!-- Generator: Adobe Illustrator 15.0.2, SVG Export Plug-In . SVG Version: 6.00 Build 0)  -->
<!DOCTYPE svg PUBLIC "-//W3C//DTD SVG 1.1//EN" "http://www.w3.org/Graphics/SVG/1.1/DTD/svg11.dtd">
<svg version="1.1" id="Layer_1" xmlns="http://www.w3.org/2000/svg" xmlns:xlink="http://www.w3.org/1999/xlink" x="0px" y="0px"
	 width="228.5px" height="25.5px" viewBox="0 0 228.5 25.5" enable-background="new 0 0 228.5 25.5" xml:space="preserve">
<g>
	<path fill="#FFFFFF" d="M5.798,17.03c0.687-0.095,0.781-0.568,0.852-1.704c0.023-1.041,0.047-7.573,0.047-11.359
		c0-0.071-0.095-0.166-0.142-0.166C6.129,3.777,3.739,3.777,3.218,3.825c-0.473,0-0.734,0.26-0.923,0.521
		C1.94,4.819,1.632,5.458,1.301,6.357C1.23,6.404,0.922,6.333,0.899,6.262c0.166-0.97,0.355-2.508,0.402-3.479
		c0.047,0,0.142-0.024,0.213,0C1.94,2.973,2.698,3.115,3.266,3.115l10.46-0.023c0.023,0,0.095-0.024,0.095-0.095V1.742
		c0-0.047,0.071-0.166,0.118-0.166c0.805-0.024,1.396-0.308,1.467-0.308c0.047,0,0.119,0.047,0.119,0.118
		c0,0.095-0.024,0.473-0.047,2.343v5.869c0,0.024,0.047,0.047,0.095,0.024c1.254-0.97,2.343-1.444,3.242-1.444
		c1.751,0,2.722,1.278,2.722,3.621c0,1.207,0.023,3.597,0.047,4.638c0,0.071-0.024,0.284,0.142,0.426
		c0.308,0.237,0.639,0.308,1.302,0.379c0.024,0.071-0.047,0.354-0.095,0.379c-0.308,0-1.254-0.095-2.295-0.071
		c-0.781,0.023-1.775,0.047-2.106,0.071c-0.071-0.048-0.047-0.308,0-0.379c0.402-0.071,0.757-0.118,0.923-0.189
		c0.284-0.142,0.379-0.236,0.402-1.278c0.024-1.254,0.095-3.667-0.118-4.756c-0.142-0.687-0.71-1.704-2.177-1.704
		c-0.663,0-1.278,0.213-1.775,0.639c-0.189,0.166-0.308,0.402-0.308,0.544c0,1.657,0.023,4.899,0.071,5.538
		c0.024,0.733,0.166,0.946,0.615,1.065c0.284,0.07,0.402,0.094,0.781,0.142c0.071,0.071,0.023,0.308,0,0.354
		c-0.284,0-1.396-0.047-2.367-0.047c-0.805,0-1.657,0.071-2.059,0.071c-0.071-0.095-0.047-0.284,0-0.379
		c0.355-0.048,0.592-0.071,0.805-0.142c0.379-0.119,0.473-0.402,0.497-1.112c0.023-0.568,0.047-3.455,0.047-4.047
		c0-6.083,0-7.005-0.024-7.833c0-0.119-0.095-0.26-0.213-0.284c-0.875-0.047-4.449-0.023-4.946,0
		C8.614,3.849,8.567,3.967,8.567,4.038c0,3.361,0.023,10.153,0.095,11.407c0.047,1.325,0.331,1.468,0.828,1.609
		c0.355,0.118,0.757,0.142,1.302,0.189c0.023,0.071,0,0.331-0.047,0.379c-0.828,0-2.177-0.071-3.1-0.071
		c-1.302,0-2.746,0.095-3.361,0.071c-0.071-0.095-0.071-0.308,0-0.379C5.041,17.172,5.49,17.102,5.798,17.03z"/>
	<path fill="#FFFFFF" d="M32.016,15.587c0.023,0.118-0.024,0.354-0.047,0.402c-1.136,1.23-2.532,1.846-3.692,1.846
		c-1.184,0-2.13-0.426-2.769-1.136c-0.899-0.971-1.231-2.344-1.231-3.621c0-1.917,0.781-3.36,2.036-4.142
		c0.639-0.426,1.798-0.757,2.414-0.757c2.201,0,2.935,2.083,3.124,3.219c0.024,0.071,0.071,0.166,0.284,0.189
		c0.023,0.071-0.023,0.284-0.095,0.308c-0.923,0.308-4.212,0.497-6.035,0.544c-0.095,0-0.142,0.142-0.142,0.26
		c0.023,0.922,0.355,1.963,0.875,2.603c0.71,0.875,1.609,1.207,2.604,1.207c0.899,0,1.728-0.189,2.58-0.994
		C31.945,15.516,32.016,15.539,32.016,15.587z M25.934,11.706c0,0.071,0.047,0.142,0.071,0.142c0.639,0.047,3.502-0.047,4-0.166
		c0.047-0.024,0.142-0.095,0.142-0.189c-0.142-1.207-0.805-2.698-2.177-2.698C26.904,8.795,26.028,9.812,25.934,11.706z"/>
	<path fill="#FFFFFF" d="M37.267,3.044c0.355,0,1.515,0.071,2.722,0.071s2.036-0.071,2.556-0.071c0.047,0.047,0.047,0.308,0,0.355
		c-0.473,0.095-0.71,0.118-0.994,0.213c-0.426,0.118-0.568,0.355-0.615,1.302c-0.071,1.846-0.047,6.011,0,7.266
		c0.095,1.632,0.308,2.414,0.781,3.099c0.734,1.137,2.154,1.729,3.763,1.729c2.13,0,3.929-0.829,4.118-4.425
		c0.094-1.775,0.142-4.852,0.047-7.266c-0.024-1.42-0.426-1.609-1.042-1.751c-0.332-0.071-0.544-0.071-0.994-0.142
		c-0.047-0.047-0.023-0.308,0.024-0.355c0.378,0,1.16,0.047,2.485,0.047c0.994,0,1.728-0.047,2.154-0.047
		c0.047,0.047,0.047,0.308,0,0.355c-0.355,0.047-0.663,0.095-0.876,0.166c-0.592,0.189-0.757,0.521-0.805,1.846
		c-0.095,5.088-0.095,6.508-0.355,8.046c-0.497,3.432-2.911,4.496-5.514,4.496c-3.479,0-5.23-1.538-5.562-4.26
		c-0.189-1.467-0.118-6.958-0.166-8.851c0-0.639-0.071-1.089-0.592-1.254c-0.26-0.095-0.805-0.166-1.136-0.213
		C37.196,3.352,37.22,3.091,37.267,3.044z"/>
	<path fill="#FFFFFF" d="M53.381,17.077c0.331-0.118,0.426-0.497,0.45-0.946c0.071-0.828,0.047-2.461,0.047-3.833
		c0-1.184-0.024-2.035-0.047-2.201c-0.047-0.284-0.189-0.45-1.112-0.71c-0.024-0.047,0-0.308,0.071-0.331
		c0.923-0.119,2.154-0.521,2.769-0.899c0.023,0,0.071,0.047,0.071,0.095c-0.047,0.473-0.071,0.994-0.095,1.396
		c0,0.071,0.047,0.119,0.095,0.095c1.444-1.16,2.533-1.562,3.266-1.562c0.947,0,1.633,0.45,2.106,1.207
		c0.426,0.663,0.568,1.562,0.568,2.698c0,1.23,0,3.408,0.023,4.354c0,0.284,0.071,0.474,0.308,0.544
		c0.308,0.143,0.591,0.213,1.018,0.261c0.023,0.071,0,0.331-0.071,0.379c-0.331,0-0.875-0.071-2.059-0.071
		c-1.136,0-1.823,0.047-2.319,0.071c-0.047-0.048-0.047-0.332,0-0.379c0.426-0.048,0.757-0.095,0.899-0.142
		c0.379-0.119,0.474-0.379,0.497-0.734c0.047-1.041,0.071-4.188-0.047-4.993c-0.071-0.402-0.236-1.112-0.686-1.515
		c-0.308-0.308-0.734-0.521-1.444-0.521c-0.686,0-1.349,0.26-1.917,0.781c-0.166,0.166-0.237,0.355-0.237,0.852
		c0,1.775,0,4.07,0.047,5.111c0.024,0.687,0.142,0.853,0.426,0.947c0.213,0.095,0.615,0.165,0.994,0.213
		c0.023,0.047,0,0.308-0.024,0.379c-0.402,0-1.065-0.071-2.272-0.071c-1.373,0-1.775,0.071-2.154,0.071
		c-0.047-0.048-0.047-0.308,0-0.379C52.861,17.22,53.145,17.172,53.381,17.077z"/>
	<path fill="#FFFFFF" d="M68.17,17.622c-0.497,0-1.42-0.071-2.177-0.071c-0.971,0-1.799,0.071-2.201,0.071
		c-0.047-0.048-0.047-0.332,0-0.379c0.332-0.023,0.687-0.071,0.923-0.189c0.284-0.118,0.402-0.308,0.426-0.971
		c0.047-0.591,0.047-2.484,0.047-3.786c0-0.923,0-1.751-0.024-2.154c0-0.142,0-0.284-0.142-0.473
		c-0.213-0.26-0.521-0.332-0.946-0.45c-0.024-0.047-0.024-0.308,0-0.355c0.686-0.071,1.94-0.284,2.816-0.71
		c-0.023,0.639-0.047,2.556-0.047,4c0,1.277,0,2.958,0.023,4.094c0,0.497,0.166,0.71,0.497,0.828
		c0.236,0.071,0.402,0.118,0.875,0.166C68.241,17.314,68.241,17.598,68.17,17.622z M66.396,5.766
		c-0.119,0.071-0.734,0.166-0.899,0.071c-0.308-0.118-0.497-0.497-0.497-0.852c-0.024-0.189,0.023-0.426,0.118-0.568
		c0.166-0.189,0.615-0.355,0.947-0.355c0.308,0,0.568,0.142,0.639,0.213c0.142,0.142,0.189,0.402,0.189,0.544
		C66.892,5.245,66.656,5.647,66.396,5.766z"/>
	<path fill="#FFFFFF" d="M68.477,8.44c0.426,0,1.42,0.071,2.106,0.071c0.947,0,1.657-0.047,2.083-0.071
		c0.071,0.047,0.047,0.308,0.024,0.355c-0.402,0.071-0.734,0.142-0.899,0.213c-0.142,0.095-0.118,0.26-0.118,0.331
		c0.284,1.018,2.035,5.514,2.201,5.893c0.024,0.023,0.095,0,0.095,0c0.497-1.207,1.562-4.141,1.846-5.088
		c0.26-0.875,0.118-0.994-0.142-1.088c-0.332-0.142-0.687-0.213-1.065-0.26c-0.024-0.071,0-0.308,0.071-0.355
		c0.26,0,1.207,0.071,1.964,0.071c0.639,0,1.467-0.047,1.728-0.071c0.071,0.023,0.047,0.308,0,0.355
		c-0.236,0.047-0.521,0.071-0.781,0.166c-0.402,0.142-0.639,0.426-0.829,0.875c-0.591,1.254-1.609,3.834-2.343,5.798
		c-0.379,0.971-0.568,1.562-0.71,2.035c-0.26,0-0.568,0-0.734,0.048c-0.166-0.592-0.355-1.089-0.615-1.822
		c-0.544-1.609-1.42-3.787-1.846-4.922c-0.616-1.609-0.687-1.799-1.278-2.012c-0.308-0.095-0.521-0.118-0.781-0.166
		C68.382,8.748,68.43,8.463,68.477,8.44z"/>
	<path fill="#FFFFFF" d="M86.533,15.587c0.023,0.118-0.024,0.354-0.047,0.402c-1.136,1.23-2.532,1.846-3.692,1.846
		c-1.184,0-2.13-0.426-2.769-1.136c-0.899-0.971-1.231-2.344-1.231-3.621c0-1.917,0.781-3.36,2.036-4.142
		c0.639-0.426,1.798-0.757,2.414-0.757c2.201,0,2.935,2.083,3.124,3.219c0.024,0.071,0.071,0.166,0.284,0.189
		c0.024,0.071-0.023,0.284-0.095,0.308c-0.923,0.308-4.212,0.497-6.035,0.544c-0.095,0-0.142,0.142-0.142,0.26
		c0.023,0.922,0.355,1.963,0.875,2.603c0.71,0.875,1.609,1.207,2.604,1.207c0.899,0,1.728-0.189,2.58-0.994
		C86.462,15.516,86.533,15.539,86.533,15.587z M80.451,11.706c0,0.071,0.047,0.142,0.071,0.142c0.639,0.047,3.502-0.047,4-0.166
		c0.047-0.024,0.142-0.095,0.142-0.189c-0.142-1.207-0.805-2.698-2.177-2.698C81.421,8.795,80.545,9.812,80.451,11.706z"/>
	<path fill="#FFFFFF" d="M94.341,8.676c0.024,0.047,0.024,0.26,0,0.355c-0.047,0.26-0.473,0.994-0.71,1.278
		c0,0-0.166,0.071-0.189,0.071c-0.378-0.402-0.923-0.639-1.373-0.639c-0.497,0-0.875,0.426-1.207,0.971
		c-0.095,0.189-0.213,0.591-0.213,0.946c0,1.349,0.024,4.117,0.071,4.591c0.024,0.45,0.142,0.687,0.45,0.805
		c0.45,0.118,0.829,0.166,1.231,0.189c0.047,0.071,0.023,0.331-0.047,0.379c-0.332,0-1.491-0.071-2.391-0.071
		c-0.639,0-1.87,0.047-2.272,0.071c-0.047-0.048-0.047-0.308,0-0.379c0.284-0.023,0.663-0.095,0.876-0.166
		c0.213-0.095,0.355-0.236,0.378-0.662c0.071-0.402,0.095-2.438,0.095-4.212c0-0.923,0-1.68-0.047-1.988
		c-0.023-0.237-0.095-0.639-1.16-0.899c0-0.071,0.024-0.284,0.071-0.308c0.71-0.071,2.059-0.474,2.674-0.852
		c0.023,0,0.095,0.047,0.095,0.071c-0.024,0.426-0.024,1.515-0.024,1.964c0,0.024,0.071,0.047,0.095,0.024
		c0.402-0.544,0.852-1.089,1.396-1.539c0.355-0.284,0.757-0.497,1.207-0.497C93.773,8.179,94.152,8.369,94.341,8.676z"/>
	<path fill="#FFFFFF" d="M100.801,10.688c-0.023,0.071-0.331,0.071-0.378,0.024c-0.119-1.065-0.332-1.609-0.852-1.846
		c-0.332-0.166-0.663-0.237-1.042-0.237c-0.757,0-1.467,0.497-1.467,1.444c0,0.805,0.26,1.325,1.988,2.201
		c1.917,0.971,2.343,1.681,2.343,2.769c0,1.609-1.467,2.793-3.432,2.793c-0.781,0-1.728-0.189-2.343-0.45
		c-0.142-0.521-0.284-1.964-0.284-2.461c0.023-0.071,0.284-0.142,0.378-0.095c0.284,1.349,0.829,1.965,1.444,2.272
		c0.355,0.188,0.734,0.26,1.065,0.26c0.923,0,1.633-0.567,1.633-1.443s-0.426-1.35-1.704-2.059
		c-1.988-1.042-2.509-1.846-2.509-3.029c0-1.42,1.112-2.651,3.219-2.651c0.473,0,0.97,0.047,1.349,0.119
		c0.308,0.047,0.71,0.095,0.852,0.095C100.896,9.15,100.848,9.812,100.801,10.688z"/>
	<path fill="#FFFFFF" d="M107.118,17.622c-0.497,0-1.42-0.071-2.177-0.071c-0.971,0-1.799,0.071-2.201,0.071
		c-0.047-0.048-0.047-0.332,0-0.379c0.332-0.023,0.687-0.071,0.923-0.189c0.284-0.118,0.402-0.308,0.426-0.971
		c0.047-0.591,0.047-2.484,0.047-3.786c0-0.923,0-1.751-0.024-2.154c0-0.142,0-0.284-0.142-0.473
		c-0.213-0.26-0.521-0.332-0.946-0.45c-0.024-0.047-0.024-0.308,0-0.355c0.686-0.071,1.94-0.284,2.816-0.71
		c-0.023,0.639-0.047,2.556-0.047,4c0,1.277,0,2.958,0.024,4.094c0,0.497,0.166,0.71,0.497,0.828
		c0.237,0.071,0.402,0.118,0.875,0.166C107.189,17.314,107.189,17.598,107.118,17.622z M105.343,5.766
		c-0.119,0.071-0.734,0.166-0.899,0.071c-0.308-0.118-0.497-0.497-0.497-0.852c-0.024-0.189,0.023-0.426,0.118-0.568
		c0.166-0.189,0.615-0.355,0.947-0.355c0.308,0,0.568,0.142,0.639,0.213c0.142,0.142,0.189,0.402,0.189,0.544
		C105.84,5.245,105.604,5.647,105.343,5.766z"/>
	<path fill="#FFFFFF" d="M111.046,9.386c-0.047,0-0.118,0.095-0.118,0.142c0,1.349-0.024,3.929,0,4.97
		c0.023,0.757,0.071,1.207,0.166,1.42c0.189,0.544,0.663,0.828,1.254,0.828s0.947-0.142,1.302-0.379
		c0.023,0.024-0.024,0.332-0.047,0.402c-0.568,0.758-1.467,1.042-2.177,1.042c-0.757,0-1.491-0.261-1.846-0.994
		c-0.284-0.568-0.308-1.184-0.308-2.698c0-1.254,0.023-3.597,0.023-4.543c0-0.071-0.023-0.142-0.095-0.166
		c-0.189-0.047-0.852-0.071-1.183-0.095c0-0.095,0.166-0.497,0.189-0.568c0.284-0.047,0.852-0.119,1.018-0.189
		c0.047-0.024,0.071-0.118,0.071-0.142v-1.87c0.45-0.189,1.302-0.899,1.491-1.183c0.071-0.024,0.213,0.023,0.284,0.047
		c-0.071,0.331-0.142,1.278-0.142,2.958c0,0.047,0.071,0.142,0.118,0.142c1.16,0,2.272-0.047,2.556-0.095
		c-0.071,0.26-0.166,0.71-0.189,0.994C112.679,9.41,111.78,9.386,111.046,9.386z"/>
	<path fill="#FFFFFF" d="M114.381,8.44c0.378,0,0.828,0.071,2.106,0.071c0.947,0,1.8-0.071,2.06-0.071
		c0.048,0.047,0.071,0.308,0.023,0.355c-0.331,0.071-0.592,0.118-0.78,0.189c-0.143,0.071-0.214,0.213-0.166,0.355
		c0.236,0.899,2.13,5.751,2.296,6.105h0.047c0.781-1.728,1.822-4.496,2.012-5.727c0.048-0.26,0.071-0.568-0.449-0.734l-0.947-0.189
		c-0.047-0.071,0-0.332,0.048-0.355c0.284,0,1.183,0.071,1.917,0.071c0.78,0,1.254-0.047,1.822-0.071c0.07,0.047,0.07,0.308,0,0.355
		c-0.332,0.071-0.568,0.118-0.734,0.189c-0.354,0.119-0.615,0.355-0.852,0.971c-1.704,4.662-3.313,8.33-5.68,12.589l-0.829,1.326
		l-0.118,0.047c-0.284-0.071-0.757-0.331-0.899-0.568c-0.023-0.047-0.047-0.188-0.023-0.236c0.828-1.041,2.675-3.455,3.692-5.633
		c0,0-0.143-0.331-0.189-0.426c-0.474-1.278-1.562-4.141-2.32-6.011c-0.592-1.467-0.781-1.893-1.302-2.059
		c-0.213-0.071-0.378-0.118-0.781-0.189C114.287,8.748,114.334,8.463,114.381,8.44z"/>
	<path fill="#FFFFFF" d="M138.188,12.794c0,1.68-0.71,3.289-2.153,4.212c-0.592,0.402-1.609,0.828-2.58,0.828
		c-3.337,0-4.521-2.557-4.521-4.922c0-1.799,0.805-3.029,2.012-3.834c0.781-0.544,1.894-0.899,2.935-0.899
		C136.649,8.179,138.188,10.215,138.188,12.794z M131.939,9.173c-0.592,0.402-1.184,1.349-1.184,3.195
		c0,2.792,1.326,4.804,3.267,4.804c0.449,0,1.041-0.142,1.443-0.521c0.71-0.733,0.899-1.728,0.899-3.124
		c0-2.65-1.159-4.709-3.242-4.709C132.792,8.818,132.224,8.937,131.939,9.173z"/>
	<path fill="#FFFFFF" d="M139.96,9.079c0.142-0.213,0.615-0.568,0.758-0.615h0.97c0.071-0.047,0.095-0.095,0.095-0.142
		c0.592-3.219,1.586-5.017,3.385-6.342c0.71-0.497,1.349-0.71,1.798-0.71c0.355,0,0.687,0.094,0.687,0.308
		c0,0.213-0.757,1.16-0.923,1.278c-0.047,0.047-0.166,0.071-0.213,0.023c-0.284-0.189-0.615-0.355-0.994-0.355
		c-0.402,0-0.828,0.308-1.089,0.899c-0.473,0.97-0.757,2.154-1.159,4.875c0,0.071,0.023,0.142,0.095,0.142
		c1.041,0,1.656-0.095,2.177-0.189c0.024,0.047-0.023,0.236-0.07,0.308c-0.427,0.355-0.899,0.521-1.396,0.615
		c-0.213,0.024-0.64,0.071-0.828,0.071c-0.048,0.024-0.119,0.119-0.119,0.166c-0.402,2.58-0.805,5.68-1.325,8.33
		c-0.828,4.521-3.219,6.295-4.946,6.295c-0.78,0-1.254-0.426-1.302-0.852c-0.023-0.308,0.214-1.184,0.332-1.373
		c0.047-0.095,0.165-0.118,0.213-0.118c0.449,0.781,1.136,1.302,1.988,1.302c1.064,0,1.515-1.089,1.964-3.692
		c0.568-3.36,1.302-8.093,1.538-9.868c0-0.071-0.023-0.166-0.071-0.166c-0.521,0-1.325-0.024-1.608-0.047
		C139.913,9.197,139.937,9.103,139.96,9.079z"/>
	<path fill="#FFFFFF" d="M152.027,3.044c0.521,0,1.728,0.071,2.745,0.071c1.372,0,2.153-0.047,2.65-0.071
		c0.048,0.047,0.048,0.308,0,0.355c-0.568,0.118-0.828,0.189-1.089,0.26c-0.308,0.095-0.402,0.331-0.284,0.639
		c0.734,2.059,3.716,9.797,4.071,10.625c0.023-0.023,0.047,0.023,0.095,0c0.354-0.781,3.219-8.022,3.881-9.939
		c0.261-0.805,0.213-1.207-0.449-1.373c-0.355-0.071-0.663-0.142-1.184-0.213c-0.023-0.047,0.023-0.332,0.071-0.355
		c0.497,0,1.349,0.071,2.39,0.071c1.089,0,1.847-0.071,2.272-0.071c0.023,0.071,0.023,0.308,0,0.355
		c-0.331,0.047-0.687,0.118-0.947,0.189c-0.686,0.189-0.923,0.616-1.562,2.13c-0.663,1.633-2.58,6.295-3.716,9.182
		c-0.449,1.136-0.757,2.059-0.97,2.816c-0.308-0.048-0.805-0.048-1.042,0c-0.284-0.923-0.592-1.988-1.064-3.195
		c-1.184-3.194-2.816-7.549-3.574-9.348c-0.473-1.136-0.733-1.491-1.349-1.609l-0.994-0.166
		C151.933,3.328,151.956,3.067,152.027,3.044z"/>
	<path fill="#FFFFFF" d="M173.183,15.587c0.023,0.118-0.023,0.354-0.048,0.402c-1.136,1.23-2.532,1.846-3.691,1.846
		c-1.184,0-2.13-0.426-2.77-1.136c-0.899-0.971-1.23-2.344-1.23-3.621c0-1.917,0.781-3.36,2.035-4.142
		c0.64-0.426,1.799-0.757,2.414-0.757c2.201,0,2.935,2.083,3.124,3.219c0.023,0.071,0.071,0.166,0.284,0.189
		c0.023,0.071-0.023,0.284-0.095,0.308c-0.923,0.308-4.213,0.497-6.035,0.544c-0.095,0-0.142,0.142-0.142,0.26
		c0.023,0.922,0.354,1.963,0.876,2.603c0.71,0.875,1.609,1.207,2.603,1.207c0.899,0,1.728-0.189,2.58-0.994
		C173.111,15.516,173.183,15.539,173.183,15.587z M167.101,11.706c0,0.071,0.047,0.142,0.07,0.142c0.64,0.047,3.503-0.047,4-0.166
		c0.047-0.024,0.142-0.095,0.142-0.189c-0.142-1.207-0.805-2.698-2.177-2.698C168.07,8.795,167.195,9.812,167.101,11.706z"/>
	<path fill="#FFFFFF" d="M180.991,8.676c0.023,0.047,0.023,0.26,0,0.355c-0.047,0.26-0.474,0.994-0.71,1.278
		c0,0-0.166,0.071-0.189,0.071c-0.379-0.402-0.923-0.639-1.372-0.639c-0.497,0-0.876,0.426-1.207,0.971
		c-0.095,0.189-0.213,0.591-0.213,0.946c0,1.349,0.023,4.117,0.07,4.591c0.023,0.45,0.143,0.687,0.45,0.805
		c0.449,0.118,0.828,0.166,1.23,0.189c0.047,0.071,0.023,0.331-0.048,0.379c-0.331,0-1.49-0.071-2.39-0.071
		c-0.64,0-1.87,0.047-2.272,0.071c-0.047-0.048-0.047-0.308,0-0.379c0.284-0.023,0.663-0.095,0.876-0.166
		c0.213-0.095,0.354-0.236,0.379-0.662c0.07-0.402,0.095-2.438,0.095-4.212c0-0.923,0-1.68-0.048-1.988
		c-0.023-0.237-0.095-0.639-1.159-0.899c0-0.071,0.023-0.284,0.07-0.308c0.71-0.071,2.06-0.474,2.675-0.852
		c0.023,0,0.095,0.047,0.095,0.071c-0.023,0.426-0.023,1.515-0.023,1.964c0,0.024,0.07,0.047,0.094,0.024
		c0.402-0.544,0.853-1.089,1.396-1.539c0.355-0.284,0.758-0.497,1.207-0.497C180.423,8.179,180.802,8.369,180.991,8.676z"/>
	<path fill="#FFFFFF" d="M182.599,17.054c0.402-0.118,0.427-0.568,0.45-1.064c0.047-1.207,0.071-3.857,0.071-5.325
		c0-0.142-0.024-0.544-0.214-0.781c-0.213-0.26-0.686-0.378-1.018-0.45c-0.023-0.071,0.048-0.331,0.095-0.355
		c0.971-0.071,2.178-0.568,2.746-0.923c0.023,0,0.07,0.047,0.07,0.071c0,0.189-0.023,1.136-0.023,1.467
		c0,0.047,0.071,0.095,0.095,0.071c1.325-1.065,2.414-1.586,3.171-1.586c1.089,0,1.941,0.663,2.367,1.586
		c0.023,0.071,0.118,0.047,0.142,0.023c1.255-0.97,2.414-1.609,3.36-1.609c1.752,0,2.651,1.349,2.675,3.574
		c0.023,1.231,0.023,3.691,0.047,4.639c0,0.213,0.024,0.402,0.166,0.521c0.236,0.213,0.568,0.26,1.207,0.331
		c0.023,0.071,0,0.331-0.071,0.379c-0.473,0-1.277-0.071-2.225-0.071c-1.112,0-1.68,0.047-2.13,0.071
		c-0.047-0.048-0.047-0.332,0-0.379c0.474-0.071,0.733-0.118,1.018-0.236c0.308-0.119,0.308-0.592,0.308-1.562
		c0.024-1.609,0.071-3.526-0.095-4.259c-0.142-0.875-0.686-1.822-2.13-1.822c-0.615,0-1.302,0.236-2.012,0.852
		c-0.047,0.047-0.047,0.166-0.047,0.213c0.071,0.473,0.095,1.065,0.095,1.633c0,1.254-0.023,3.432,0.023,4.401
		c0.023,0.284,0.142,0.474,0.331,0.545c0.261,0.118,0.545,0.188,1.042,0.236c0.047,0.071,0.023,0.331-0.048,0.379
		c-0.662,0-1.349-0.071-2.271-0.071c-0.853,0-1.681,0.071-2.106,0.071c-0.048-0.048-0.048-0.308,0-0.379
		c0.426-0.048,0.615-0.071,0.899-0.166c0.308-0.118,0.354-0.354,0.402-0.97c0.07-1.16,0.047-4.425-0.071-5.088
		c-0.142-0.663-0.615-1.681-2.035-1.681c-0.402,0-1.089,0.189-1.657,0.616c-0.236,0.189-0.449,0.402-0.449,0.71
		c0,1.538,0,4.377,0.023,5.608c0,0.402,0.048,0.687,0.474,0.805c0.236,0.071,0.521,0.118,0.899,0.166
		c0.047,0.047,0.023,0.354-0.048,0.379c-0.544,0-1.349-0.071-2.2-0.071c-1.231,0-1.609,0.071-2.201,0.071
		c-0.071-0.048-0.048-0.355,0-0.379C182.149,17.195,182.362,17.148,182.599,17.054z"/>
	<path fill="#FFFFFF" d="M208.581,12.794c0,1.68-0.71,3.289-2.153,4.212c-0.592,0.402-1.609,0.828-2.58,0.828
		c-3.337,0-4.521-2.557-4.521-4.922c0-1.799,0.805-3.029,2.012-3.834c0.781-0.544,1.894-0.899,2.935-0.899
		C207.043,8.179,208.581,10.215,208.581,12.794z M202.333,9.173c-0.592,0.402-1.184,1.349-1.184,3.195
		c0,2.792,1.326,4.804,3.267,4.804c0.449,0,1.041-0.142,1.443-0.521c0.71-0.733,0.899-1.728,0.899-3.124
		c0-2.65-1.159-4.709-3.242-4.709C203.186,8.818,202.617,8.937,202.333,9.173z"/>
	<path fill="#FFFFFF" d="M210.897,17.077c0.332-0.118,0.427-0.497,0.45-0.946c0.071-0.828,0.047-2.461,0.047-3.833
		c0-1.184-0.023-2.035-0.047-2.201c-0.048-0.284-0.189-0.45-1.112-0.71c-0.023-0.047,0-0.308,0.071-0.331
		c0.923-0.119,2.153-0.521,2.769-0.899c0.023,0,0.071,0.047,0.071,0.095c-0.048,0.473-0.071,0.994-0.095,1.396
		c0,0.071,0.047,0.119,0.095,0.095c1.443-1.16,2.532-1.562,3.266-1.562c0.946,0,1.633,0.45,2.106,1.207
		c0.426,0.663,0.568,1.562,0.568,2.698c0,1.23,0,3.408,0.023,4.354c0,0.284,0.07,0.474,0.308,0.544
		c0.308,0.143,0.592,0.213,1.018,0.261c0.023,0.071,0,0.331-0.071,0.379c-0.331,0-0.876-0.071-2.059-0.071
		c-1.136,0-1.822,0.047-2.319,0.071c-0.048-0.048-0.048-0.332,0-0.379c0.426-0.048,0.757-0.095,0.899-0.142
		c0.378-0.119,0.473-0.379,0.497-0.734c0.047-1.041,0.07-4.188-0.048-4.993c-0.071-0.402-0.236-1.112-0.687-1.515
		c-0.308-0.308-0.733-0.521-1.443-0.521c-0.687,0-1.349,0.26-1.917,0.781c-0.166,0.166-0.236,0.355-0.236,0.852
		c0,1.775,0,4.07,0.047,5.111c0.023,0.687,0.143,0.853,0.426,0.947c0.214,0.095,0.616,0.165,0.994,0.213
		c0.024,0.047,0,0.308-0.023,0.379c-0.402,0-1.065-0.071-2.271-0.071c-1.373,0-1.775,0.071-2.154,0.071
		c-0.047-0.048-0.047-0.308,0-0.379C210.377,17.22,210.661,17.172,210.897,17.077z"/>
	<path fill="#FFFFFF" d="M224.221,9.386c-0.048,0-0.119,0.095-0.119,0.142c0,1.349-0.023,3.929,0,4.97
		c0.024,0.757,0.071,1.207,0.166,1.42c0.189,0.544,0.663,0.828,1.254,0.828c0.592,0,0.947-0.142,1.302-0.379
		c0.024,0.024-0.023,0.332-0.047,0.402c-0.568,0.758-1.468,1.042-2.178,1.042c-0.757,0-1.491-0.261-1.846-0.994
		c-0.284-0.568-0.308-1.184-0.308-2.698c0-1.254,0.023-3.597,0.023-4.543c0-0.071-0.023-0.142-0.095-0.166
		c-0.189-0.047-0.852-0.071-1.183-0.095c0-0.095,0.165-0.497,0.188-0.568c0.284-0.047,0.853-0.119,1.018-0.189
		c0.048-0.024,0.071-0.118,0.071-0.142v-1.87c0.45-0.189,1.302-0.899,1.491-1.183c0.071-0.024,0.213,0.023,0.284,0.047
		c-0.071,0.331-0.143,1.278-0.143,2.958c0,0.047,0.071,0.142,0.119,0.142c1.159,0,2.271-0.047,2.556-0.095
		c-0.071,0.26-0.166,0.71-0.189,0.994C225.854,9.41,224.954,9.386,224.221,9.386z"/>
</g>
</svg>
